HIERARCHY
ROOT Hips
{
  OFFSET 0 0 0
  CHANNELS 6 Xposition Yposition Zposition Zrotation Yrotation Xrotation
  JOINT LeftThigh
  {
    OFFSET 8.409438 0 -5.917753
    CHANNELS 3 Zrotation Yrotation Xrotation
    JOINT LeftLeg
    {
      OFFSET 0 0 -42.358652
      CHANNELS 3 Zrotation Yrotation Xrotation
      JOINT LeftFoot
      {
        OFFSET 0 0 -39.357303
        CHANNELS 3 Zrotation Yrotation Xrotation
      }
    }
  }
  JOINT RightThigh
  {
    OFFSET -8.409438 0 -5.917753
    CHANNELS 3 Zrotation Yrotation Xrotation
    JOINT RightLeg
    {
      OFFSET 0 0 -42.358652
      CHANNELS 3 Zrotation Yrotation Xrotation
      JOINT RightFoot
      {
        OFFSET 0 0 -39.357303
        CHANNELS 3 Zrotation Yrotation Xrotation
      }
    }
  }
  JOINT SpineLow
  {
    OFFSET 0 0 4.719101
    CHANNELS 3 Zrotation Yrotation Xrotation
    JOINT SpineMid
    {
      OFFSET 0 0 12.899191
      CHANNELS 3 Zrotation Yrotation Xrotation
      JOINT Chest
      {
        OFFSET 0 0 12.899191
        CHANNELS 3 Zrotation Yrotation Xrotation
        JOINT LeftShoulder
        {
          OFFSET 7.550562 1.41573 9.438202
          CHANNELS 3 Zrotation Yrotation Xrotation
          JOINT LeftArm
          {
            OFFSET 9.155056 0 4.247191
            CHANNELS 3 Zrotation Yrotation Xrotation
            JOINT LeftForearm
            {
              OFFSET 0 0 25.771955
              CHANNELS 3 Zrotation Yrotation Xrotation
              JOINT LeftHand
              {
                OFFSET 0 0 25.197169
                CHANNELS 3 Zrotation Yrotation Xrotation
              }
            }
          }
        }
        JOINT RightShoulder
        {
          OFFSET -7.550562 1.41573 9.438202
          CHANNELS 3 Zrotation Yrotation Xrotation
          JOINT RightArm
          {
            OFFSET -9.155056 0 4.247191
            CHANNELS 3 Zrotation Yrotation Xrotation
            JOINT RightForearm
            {
              OFFSET 0 0 -25.771955
              CHANNELS 3 Zrotation Yrotation Xrotation
              JOINT RightHand
              {
                OFFSET 0 0 -25.197169
                CHANNELS 3 Zrotation Yrotation Xrotation
              }
            }
          }
        }
        JOINT Neck
        {
          OFFSET 0 0 15.101124
          CHANNELS 3 Zrotation Yrotation Xrotation
          JOINT Head
          {
            OFFSET 0 0 11.325843
            CHANNELS 3 Zrotation Yrotation Xrotation
            End Site
            {
              OFFSET 0 0 14.157303
            }
          }
        }
      }
    }
  }
}
MOTION
Frames: 16
Frame Time: 0.0
0.0  93.25843  0.0  0.604574  13.442004  -86.922439  2.038924  -17.631013  -5.609106  -10.684557  2.893033  14.320382  -3.921619  -1.077207  -2.602547  -13.085627  4.319224  -3.723553  -15.322775  9.141796  12.144539  -1.02159  0.890112  -1.983369  2.757316  0.5747  -0.40384  7.528382  1.614497  -1.036924  7.528382  1.614497  -1.036923  0.881392  11.813407  7.518127  -172.824024  25.355189  -161.142197  -8.20618  -1.312515  96.787367  75.467459  -14.2989  2.815163  8.089711  -10.104577  24.100623  99.626979  36.9779  59.296825  -34.745712  14.086295  -101.496819  87.328607  -30.60703  8.657319  -18.661124  -1.822991  -1.464812  -13.999119  -1.323971  -1.155506  
0.0  93.25843  0.0  0.618075  13.558688  -86.769728  2.218783  -17.763467  -6.321652  -10.952165  3.283743  14.845122  -3.935094  -1.013441  -2.539361  -13.86074  4.217743  -4.213376  -14.969975  9.694615  12.563841  -0.682725  0.885583  -1.998827  2.768718  0.604707  -0.405026  7.559166  1.696697  -1.036465  7.559167  1.696698  -1.036465  1.563472  11.706444  7.521057  -172.371354  24.776328  -161.85984  -8.13706  -1.26383  97.371731  74.358683  -15.254902  3.927906  9.449198  -10.581268  24.469469  98.392685  37.712609  59.171541  -34.823802  13.227403  -102.138206  87.120645  -29.737856  9.002058  -18.987575  -1.959252  -1.525646  -14.244281  -1.42366  -1.206432  
0.0  93.25843  0.0  0.550983  13.436837  -86.652791  2.68485  -17.869406  -6.825084  -11.106469  3.675486  15.431521  -4.049995  -1.047814  -2.598953  -14.371636  4.043002  -4.658322  -14.611918  10.207388  13.008871  -0.448841  0.870568  -2.026178  2.815039  0.612066  -0.411486  7.685547  1.71822  -1.052034  7.685547  1.71822  -1.052034  2.308709  11.658547  7.539414  -172.027146  24.2357  -162.412558  -7.95411  -1.432009  97.830027  72.938731  -16.335287  5.336178  9.354221  -10.616985  24.451391  98.510141  37.751127  59.054696  -34.961055  12.43673  -102.820203  86.979763  -28.808598  9.171103  -19.196954  -2.079601  -1.498003  -14.401324  -1.51441  -1.190158  
0.0  93.25843  0.0  0.501933  13.205943  -86.509605  2.925949  -17.879029  -7.392525  -11.293468  4.072654  15.956502  -3.778243  -1.000142  -2.413117  -14.770055  3.824596  -5.16061  -14.696525  10.753655  13.328084  -0.094019  0.866585  -2.015146  2.849423  0.624598  -0.430062  7.778901  1.755122  -1.100362  7.778901  1.755122  -1.100362  3.256698  11.415705  7.596855  -171.647904  23.70129  -162.824776  -7.661653  -1.59481  98.236622  71.226559  -17.538868  7.074225  9.471988  -10.724148  24.601235  98.326059  37.967968  58.795222  -35.059555  11.618108  -103.520128  87.151866  -27.949837  9.090915  -19.447627  -2.175447  -1.463077  -14.589265  -1.586926  -1.167876  
0.0  93.25843  0.0  0.435458  12.628737  -86.383768  3.586398  -17.772816  -7.820923  -11.476936  4.416393  16.486718  -3.689313  -1.099871  -2.382222  -14.632235  3.567219  -5.669972  -14.468341  11.408047  13.839127  0.081102  0.861108  -2.006088  2.923258  0.623376  -0.452075  7.98018  1.755606  -1.158594  7.980181  1.755606  -1.158594  4.265699  11.158718  7.7063  -171.058353  23.286451  -163.097202  -7.224754  -1.629833  98.692338  69.444462  -18.743686  9.059214  9.264944  -10.711401  24.65864  98.231349  38.026102  58.44058  -35.033092  10.74666  -104.303271  87.547411  -27.217407  8.787415  -19.549611  -2.251587  -1.358202  -14.665401  -1.647235  -1.091946  
0.0  93.25843  0.0  0.626684  12.579315  -85.934373  3.604851  -17.265091  -8.694467  -11.521396  4.642015  17.293994  -3.540352  -1.190675  -2.263475  -15.0239  3.427079  -6.563469  -14.064572  12.128899  14.450957  0.021816  0.726058  -1.996255  2.810805  0.669562  -0.533898  7.669757  1.889245  -1.379674  7.669757  1.889245  -1.379674  6.087619  10.463164  7.888612  -170.683904  22.647098  -163.4893  -6.675916  -1.651973  99.336108  67.826094  -19.816072  11.014965  9.887921  -10.947004  24.918291  97.60474  38.213441  57.980125  -34.861918  9.834233  -105.085683  88.047239  -26.4398  8.331533  -19.355709  -2.279799  -1.181492  -14.519327  -1.674416  -0.959424  
0.0  93.25843  0.0  0.677556  11.534234  -85.834634  5.07372  -16.825197  -8.931804  -12.179644  4.815606  17.65133  -3.609212  -1.3171  -2.261724  -14.47921  3.195528  -7.275764  -13.756885  12.90872  15.131051  0.140677  0.764358  -1.966777  2.884961  0.675487  -0.545633  7.872057  1.908289  -1.40884  7.872057  1.908289  -1.40884  7.045875  10.350278  8.094383  -169.738961  22.233654  -163.488244  -6.164123  -1.846707  100.142207  66.391749  -20.694812  12.738745  9.89811  -10.961947  24.868531  97.15232  38.142943  57.479333  -34.635446  8.947946  -105.946939  88.549377  -25.632901  7.750463  -19.25926  -2.317642  -1.137367  -14.446839  -1.704391  -0.927115  
0.0  93.25843  0.0  0.950701  11.047799  -85.373806  5.972569  -16.11331  -9.416815  -12.922203  4.868689  17.960506  -3.750437  -1.425247  -2.257158  -14.63012  3.03529  -8.466993  -13.421242  13.764912  15.881702  0.255118  0.811005  -1.948336  2.812339  0.735628  -0.598216  7.670827  2.07702  -1.547606  7.670826  2.07702  -1.547606  8.084565  10.258756  8.273358  -168.881094  21.776325  -163.307406  -5.792393  -2.282206  100.975908  65.03927  -21.478467  14.187211  10.16019  -11.087661  24.790322  96.596914  38.06246  56.920056  -34.413054  8.205998  -106.839175  88.948254  -24.774547  7.212136  -18.993734  -2.418675  -1.131589  -14.247711  -1.780874  -0.924877  
0.0  93.25843  0.0  0.973042  9.432743  -85.25531  7.861003  -15.519577  -9.429421  -13.669054  4.74261  18.218995  -4.134551  -1.481621  -2.38914  -13.743948  2.748141  -9.40916  -13.070158  14.659504  16.62985  0.424695  0.867412  -1.894077  2.907031  0.751771  -0.605021  7.929201  2.124005  -1.561215  7.929202  2.124005  -1.561216  8.824186  10.366768  8.485998  -168.021428  21.289283  -162.830488  -5.556122  -2.844039  101.709072  63.689361  -22.177356  15.381554  10.148025  -11.099578  24.62651  96.235467  37.905607  56.399118  -34.26648  7.664788  -107.798146  89.235987  -23.914829  6.797447  -18.720529  -2.520715  -1.23129  -14.043268  -1.854881  -1.001734  
0.0  93.25843  0.0  0.936927  7.59495  -85.07449  9.515915  -14.929543  -9.322212  -14.288996  4.50706  18.350674  -4.529962  -1.44131  -2.56835  -12.691268  2.362134  -10.434358  -12.618395  15.531286  17.340808  0.41651  0.895512  -1.837855  2.866063  0.814736  -0.66389  7.813946  2.301841  -1.715897  7.813947  2.301842  -1.715896  10.21825  10.09459  8.718978  -167.110558  20.783951  -162.221601  -5.525287  -3.233598  102.423561  62.356199  -22.617392  16.461935  11.036462  -11.610743  24.650677  95.956667  37.835058  56.033359  -34.208479  7.259386  -108.783951  89.511508  -23.063148  6.524941  -17.878154  -2.797855  -1.188699  -13.411443  -2.065716  -0.974281  
0.0  93.25843  0.0  0.856948  5.457381  -84.8436  10.698497  -14.49378  -9.102297  -14.411534  4.394958  18.445984  -4.709183  -1.418623  -2.642902  -11.347802  1.878557  -11.528782  -12.05495  16.332872  18.031813  0.474985  1.012179  -1.751508  2.964175  0.800752  -0.697352  8.081324  2.2702  -1.805431  8.081324  2.2702  -1.805431  10.599001  10.446433  8.979884  -166.074897  20.376645  -161.339319  -5.593781  -3.177302  103.167081  61.170339  -22.921794  17.470628  11.069234  -11.652983  24.773331  95.92344  37.841084  55.843852  -34.231824  6.900971  -109.724779  89.81866  -22.234525  6.315823  -17.386083  -2.829342  -1.358629  -13.04327  -2.085362  -1.100406  
0.0  93.25843  0.0  0.801489  2.867445  -84.632498  11.644898  -14.175458  -8.793187  -14.090724  4.532386  18.518352  -4.618501  -1.523251  -2.59489  -9.692153  1.412961  -12.650869  -11.280396  17.018511  18.775457  0.55504  1.194183  -1.695286  3.070969  0.804469  -0.712586  8.372701  2.285056  -1.842779  8.3727  2.285056  -1.842779  10.782954  10.869259  9.189107  -164.895316  20.059472  -160.078165  -5.742073  -2.764347  103.90305  60.16962  -23.316074  18.487858  11.235825  -11.804457  24.875202  96.183974  37.883892  55.803694  -34.2727  6.4902  -110.520191  90.183193  -21.407315  6.039928  -16.70254  -2.898648  -1.573268  -12.531785  -2.132889  -1.260129  
0.0  93.25843  0.0  0.906182  -0.10776  -84.564987  12.769602  -13.742126  -8.284935  -13.525756  4.627913  18.635117  -4.242677  -1.659683  -2.350904  -7.959023  1.125165  -13.663717  -10.382627  17.603033  19.484849  0.426132  1.314856  -1.681572  3.172874  0.829591  -0.699909  8.651242  2.354651  -1.801302  8.651242  2.354651  -1.801303  10.867248  11.378266  9.399696  -163.698818  19.780794  -158.36512  -5.926244  -2.239811  104.602797  59.357064  -23.936897  19.625712  11.572737  -11.979112  25.064084  96.649333  37.967063  55.824526  -34.315445  5.969683  -111.150566  90.590926  -20.584695  5.581262  -15.761597  -2.929003  -1.788625  -11.827307  -2.152339  -1.417922  
0.0  93.25843  0.0  1.133079  -3.478374  -84.568396  14.186667  -13.18239  -7.586416  -12.656821  4.441532  18.768933  -4.160709  -1.66931  -2.224536  -6.281476  0.974603  -14.696082  -9.439024  18.079986  20.134717  0.491881  1.506339  -1.663251  3.250711  0.83922  -0.699042  8.863899  2.382821  -1.79481  8.8639  2.382821  -1.79481  10.920699  12.086942  9.809891  -162.492467  19.482468  -156.135229  -6.18595  -1.864549  105.312518  58.604732  -24.834911  20.810551  12.069932  -12.030655  25.408519  97.328894  37.955711  55.896356  -34.231063  5.382485  -111.615039  90.903533  -19.779699  5.063343  -14.482936  -2.794688  -1.945196  -10.869069  -2.051307  -1.52592  
0.0  93.25843  0.0  1.50113  -7.399607  -84.665567  15.719332  -12.48247  -6.585726  -11.265571  4.007704  18.830923  -4.248393  -1.594921  -2.138453  -4.66344  0.986948  -15.733351  -8.411505  18.405232  20.659262  0.534716  1.612726  -1.654348  3.332958  0.856845  -0.708014  9.088089  2.434245  -1.813844  9.088089  2.434245  -1.813843  10.846923  12.805086  10.088676  -161.568413  19.320785  -153.700609  -6.708691  -1.760872  106.159275  57.682685  -25.755172  21.852375  12.594128  -11.996024  25.835444  98.315188  37.843414  55.976355  -34.079102  4.831481  -111.877194  90.938576  -19.024778  4.662799  -12.896444  -2.621123  -2.020694  -9.679435  -1.924241  -1.571444  
0.0  93.25843  0.0  1.818  -11.935579  -84.736584  17.332942  -11.80098  -5.451678  -9.543601  3.563798  18.705738  -4.268583  -1.527236  -2.1022  -3.051318  0.957051  -16.871728  -7.214706  18.520728  21.062804  0.706835  1.684613  -1.628113  3.437532  0.86423  -0.751708  9.372217  2.46328  -1.928057  9.372217  2.46328  -1.928057  10.483839  13.464421  10.29193  -160.809861  19.49125  -151.081759  -7.442792  -1.769569  107.412461  56.497813  -26.624544  22.423374  13.129665  -11.776237  26.490357  99.610757  37.837953  55.946869  -33.930112  4.456069  -111.91726  90.645745  -18.405751  4.653382  -11.044759  -2.429144  -1.999494  -8.290379  -1.786437  -1.543924  
